<svg width="173" height="56" viewBox="0 0 173 56" xmlns="http://www.w3.org/2000/svg" xmlns:xlink="http://www.w3.org/1999/xlink" aria-labelledby="logoTitle" role="img"><title id="logoTitle">Dynatron Logo - Hompage link</title><defs><path d="M4.35 48.55c8.19 9.72 25.2 8.15 37.98-3.5C55.12 33.41 58.84 16.1 50.65 6.37 47.04 2.1 41.71 0 35.8 0c-7.5 0-15.98 3.36-23.12 9.87C-.12 21.52-3.84 38.83 4.35 48.55Z" id="a"></path><path id="d" d="M0 0h18.59v28.8H0z"></path><path id="f" d="M0 0h6.35v10.82H0z"></path><path id="h" d="M0 0h5.72v8.12H0z"></path><radialGradient cx="53.69%" cy="47.81%" fx="53.69%" fy="47.81%" r="58.35%" gradientTransform="matrix(-.5801 .81398 -.60464 -.4321 1.14 .25)" id="b"><stop stop-color="#2A9DFF" offset="0%"></stop><stop stop-color="#2A9DFF" offset="0%"></stop><stop stop-color="#15B3FF" offset="100%"></stop></radialGradient></defs><g fill="none" fill-rule="evenodd"><g transform="translate(0 .68)"><mask id="c" fill="#fff"><use xlink:href="#a"></use></mask><use fill="url(#b)" xlink:href="#a"></use><path d="M35.42 9.84c12.56 1.35 18.37 12.66 13 25.27-5.38 12.6-19.91 21.73-32.46 20.38a19.91 19.91 0 0 1-4.66-1.05c1.85.82 3.92 1.39 6.21 1.63 13.3 1.44 28.7-8.23 34.4-21.6 5.7-13.36-.46-25.35-13.77-26.78-11.03-1.19-23.5 5.27-30.69 15.12 6.9-8.57 18.05-14.04 27.97-12.97" fill="#FFF" mask="url(#c)"></path></g><g fill="#FFF"><path d="m13.35 47.96 3.44-.12s3.73.27 5.28-4.97l2.16-7.7s1.3-4.03 5.45-4.27l8.05-.4s-.38-8.09-8.84-8l-8.4.06-7.14 25.4Z"></path><path d="m12.74 50.96-.9 3.49s6.03 2.48 13.9.39c0 0 4.03-1.06 6.65-4.79 0 0 5.1-6.36 5.57-16.6l-2.48.11s-4.23.25-5.22 3.85l-1.4 5.76s-1.45 6.6-5.04 7.03l-11.08.76Z"></path></g><g><g transform="translate(61 10.94)"><mask id="e" fill="#fff"><use xlink:href="#d"></use></mask><path d="M7.53 24.68c1.44 0 2.63-.9 3.08-2.96l3.21-14.97c.08-.46.13-.83.13-1.11 0-1.16-.58-1.53-1.73-1.53H9.87L5.51 24.68h2.02ZM6.13 0h6.66c3.79 0 5.8 1.85 5.8 5.14 0 .66-.08 1.36-.24 2.14l-3.09 14.56c-.98 4.61-3.33 6.96-7.85 6.96H0L6.13 0Z" class="text-color" fill="#2B2B2B" mask="url(#e)"></path></g><path d="M84.49 42.16c-1.36 3.05-3 4.37-5.68 4.37-1.1 0-2.59-.3-3.33-.75l.78-3.62c.5.25 1.32.5 2.1.5 1.07 0 1.6-.5 2.1-1.6l.37-.91-.45-21.4h4.36l-.25 14.4 5.68-14.4h4.32l-10 23.41ZM107.4 24.89l-3.16 14.85h-4.45l3.13-14.6c.12-.5.16-.91.16-1.28 0-1.07-.5-1.65-1.6-1.65-1.11 0-2.1.78-2.6 2.63l-3.12 14.9h-4.44l4.4-20.98h3.78l-.37 2.18a5.13 5.13 0 0 1 4.36-2.6c2.6 0 4.2 1.45 4.2 4.2 0 .7-.08 1.48-.29 2.35ZM115.57 33.9l.9-4.32c-.4.37-1.1.7-2.47 1.31-1.72.78-2.71 2.14-2.71 3.83 0 .94.5 1.69 1.73 1.69 1.19 0 2.05-.75 2.55-2.51m6.42-10.58c0 .74-.09 1.6-.3 2.55l-1.72 8.35a25.02 25.02 0 0 0-.7 5.52h-4.11c-.09-.2 0-1.07.12-2.02a5.01 5.01 0 0 1-4.32 2.43c-2.67 0-4.28-1.77-4.28-4.49 0-4.27 2.63-6.41 6.67-7.85 3.29-1.16 3.78-1.48 4.03-2.6v.05l.12-.62c.08-.37.12-.7.12-.99 0-1.07-.57-1.56-1.72-1.56-1.11 0-1.85.78-2.14 2.22l-.2.99h-4.2l.28-1.2c.87-3.66 3-5.75 6.46-5.75 3.62 0 5.89 1.52 5.89 4.97M127.2 34.64c-.03.2-.07.4-.07.57 0 .9.82 1.07 1.52 1.07.45 0 .86-.08 1.27-.2l-.49 3.74c-.78.29-1.6.33-2.34.33-2.76 0-4.53-1.36-4.53-3.87 0-.45.04-.9.17-1.4l2.63-12.42h-2.39l.78-3.7h2.6l1.6-5.68h3.87l-1.2 5.68h3.13l-.78 3.7h-3.17l-2.6 12.18ZM144.63 18.76l-.86 4.15a4.4 4.4 0 0 0-1.57-.29c-2.01 0-3.41 1.36-4.15 4l-2.76 13.12h-4.44l4.4-20.98h3.79l-.54 3.29c1.07-2.47 2.51-3.7 4.44-3.7.58 0 1.28.12 1.7.4M151.42 33.98l1.97-9.05c.09-.33.13-.66.13-.95 0-1.23-.7-1.77-1.98-1.77-1.36 0-1.97.95-2.26 2.3l-1.98 9.06a4 4 0 0 0-.12.94c0 1.24.7 1.77 1.98 1.77 1.35 0 1.97-.94 2.26-2.3m-8.56.74c0-.62.04-1.32.2-2.02l1.82-8.27c.82-3.95 3.2-6.08 6.74-6.08 3.7 0 6.22 1.89 6.22 5.43 0 .61-.05 1.31-.21 2.01l-1.81 8.27c-.82 3.95-3.2 6.09-6.75 6.09-3.7 0-6.2-1.9-6.2-5.43M172.84 22.41c0 .7-.08 1.48-.28 2.35l-3.17 14.85h-4.44l3.12-14.6c.12-.5.17-.91.17-1.28 0-1.07-.5-1.65-1.6-1.65-1.12 0-2.1.78-2.6 2.63l-3.13 14.9h-4.44l4.4-20.98h3.79l-.37 2.18a5.13 5.13 0 0 1 4.36-2.6c2.59 0 4.2 1.45 4.2 4.2" class="text-color" fill="#2B2B2B"></path><g><g transform="translate(128.15 44.5)"><mask id="g" fill="#fff"><use xlink:href="#f"></use></mask><path d="M1.08 7.92c0 1.14.5 1.95 1.65 1.95.89 0 1.5-.51 1.7-1.47.2-.93-.07-1.78-1.37-2.82C1.59 4.42 1 3.48 1.28 2.06 1.5.86 2.4 0 3.85 0c2.18 0 2.6 1.69 2.48 2.79H5.26c.05-.8-.2-1.84-1.47-1.84-.84 0-1.3.48-1.44 1.22-.16.91.14 1.5 1.4 2.5C5.5 6.05 5.85 7.1 5.53 8.56a2.71 2.71 0 0 1-2.84 2.25c-2.27 0-2.77-1.57-2.7-2.9h1.08Z" class="text-color" fill="#2B2B2B" mask="url(#g)"></path></g><path d="M136.04 51.17c-.44 1.98-.22 3.2.93 3.2 1.1 0 1.72-1.34 2.09-3.06.32-1.52.37-3.15-.96-3.15-.9 0-1.68 1.15-2.06 3.01m4.13.19c-.42 2.06-1.33 3.96-3.3 3.96-2 0-2.46-1.81-1.93-4.26.55-2.6 1.8-3.86 3.23-3.86 2.13 0 2.44 1.96 2 4.16M141.07 55.18l1.47-6.92h-1.05l.2-.93h1.05l.24-1.12c.26-1.2.68-2.15 2.01-2.15.2 0 .62.04.74.12l-.2.92c-.14-.03-.3-.08-.52-.08-.6 0-.78.43-.95 1.2l-.23 1.1h1.2l-.2.94h-1.2l-1.46 6.92h-1.1ZM145.55 47.33h1.12l.46-2.1h1.09l-.47 2.1h1.32l-.19.93h-1.33l-1.09 5.11c-.12.57-.12 1.02.55 1.02.28 0 .5-.04.66-.07l-.18.85c-.25.1-.62.12-.93.12-1.01 0-1.5-.45-1.24-1.72l1.14-5.31h-1.11l.2-.93ZM150.82 47.33c-.03 3.5-.06 5.45-.12 6.58h.03c.3-.93.94-2.38 2.76-6.58h1.07c-.02 3.87-.02 5.51-.08 6.57h.01c.28-.92.9-2.42 2.65-6.57h1.15l-3.53 7.85h-1.13c.01-2.65-.04-5.26.03-6.32h-.02c-.39 1.16-1.4 3.4-2.66 6.32h-1.17l-.1-7.85h1.11Z" class="text-color" fill="#2B2B2B"></path><g transform="translate(157.47 47.2)"><mask id="i" fill="#fff"><use xlink:href="#h"></use></mask><path d="M4.23 4.07c-.45.05-.92.08-1.32.16-.87.17-1.55.51-1.75 1.44-.15.71.03 1.52.93 1.52 1.05 0 1.66-.84 2-2.48l.14-.64Zm.6 2.11c-.09.51-.3 1.38-.34 1.8H3.42c.03-.22.08-.59.16-.88-.39.68-1.01 1.02-1.9 1.02C.2 8.12-.18 6.83.09 5.59c.3-1.45 1.36-1.96 2.68-2.2.52-.09 1.08-.12 1.64-.17l.17-.82c.17-.79.08-1.52-1.02-1.52-.8 0-1.15.45-1.37 1.29H1.13C1.39.9 2.09 0 3.66 0 5.14 0 6 .77 5.64 2.46l-.8 3.72Z" class="text-color" fill="#2B2B2B" mask="url(#i)"></path></g><path d="M167.8 48.43c-1.35.01-2.16.93-2.49 2.45l-.91 4.3h-1.1l1.12-5.2c.26-1.24.43-2.06.52-2.65h1.04c-.03.26-.08.63-.25 1.38.56-1.03 1.4-1.5 2.36-1.5l-.28 1.22ZM171.77 50.55c.1-.37.17-.77.17-1.1 0-.74-.25-1.32-1.1-1.32-1 0-1.61 1.1-1.94 2.42h2.87Zm-3.05.87c-.11.52-.16 1-.16 1.4 0 .98.31 1.56 1.1 1.56.92 0 1.29-.72 1.49-1.18h1.07c-.26.82-1 2.12-2.68 2.12-2.28 0-2.25-2.35-1.85-4.21.52-2.37 1.57-3.9 3.27-3.9 1.94 0 2.34 1.64 1.85 3.64l-.14.57h-3.95Z" class="text-color" fill="#2B2B2B"></path></g></g></g></svg>