<svg width="56" height="56" viewBox="0 0 56 56" xmlns="http://www.w3.org/2000/svg"
    xmlns:xlink="http://www.w3.org/1999/xlink" aria-labelledby="logoTitle" role="img">
    <title id="logoTitle">Dynatron Logo - Hompage link</title>
    <defs>
        <path
            d="M4.35 48.55c8.19 9.72 25.2 8.15 37.98-3.5C55.12 33.41 58.84 16.1 50.65 6.37 47.04 2.1 41.71 0 35.8 0c-7.5 0-15.98 3.36-23.12 9.87C-.12 21.52-3.84 38.83 4.35 48.55Z"
            id="a"></path>
        <path id="d" d="M0 0h18.59v28.8H0z"></path>
        <path id="f" d="M0 0h6.35v10.82H0z"></path>
        <path id="h" d="M0 0h5.72v8.12H0z"></path>
        <radialGradient cx="53.69%" cy="47.81%" fx="53.69%" fy="47.81%" r="58.35%"
            gradientTransform="matrix(-.5801 .81398 -.60464 -.4321 1.14 .25)" id="b">
            <stop stop-color="#2A9DFF" offset="0%"></stop>
            <stop stop-color="#2A9DFF" offset="0%"></stop>
            <stop stop-color="#15B3FF" offset="100%"></stop>
        </radialGradient>
    </defs>
    <g fill="none" fill-rule="evenodd">
        <g transform="translate(0 .68)">
            <mask id="c" fill="#fff">
                <use xlink:href="#a"></use>
            </mask>
            <use fill="url(#b)" xlink:href="#a"></use>
            <path
                d="M35.42 9.84c12.56 1.35 18.37 12.66 13 25.27-5.38 12.6-19.91 21.73-32.46 20.38a19.91 19.91 0 0 1-4.66-1.05c1.85.82 3.92 1.39 6.21 1.63 13.3 1.44 28.7-8.23 34.4-21.6 5.7-13.36-.46-25.35-13.77-26.78-11.03-1.19-23.5 5.27-30.69 15.12 6.9-8.57 18.05-14.04 27.97-12.97"
                fill="#FFF" mask="url(#c)"></path>
        </g>
        <g fill="#FFF">
            <path
                d="m13.35 47.96 3.44-.12s3.73.27 5.28-4.97l2.16-7.7s1.3-4.03 5.45-4.27l8.05-.4s-.38-8.09-8.84-8l-8.4.06-7.14 25.4Z">
            </path>
            <path
                d="m12.74 50.96-.9 3.49s6.03 2.48 13.9.39c0 0 4.03-1.06 6.65-4.79 0 0 5.1-6.36 5.57-16.6l-2.48.11s-4.23.25-5.22 3.85l-1.4 5.76s-1.45 6.6-5.04 7.03l-11.08.76Z">
            </path>
        </g>
        <g>
            <g transform="translate(61 10.94)">
                <mask id="e" fill="#fff">
                    <use xlink:href="#d"></use>
                </mask>
            </g>
            <g>
                <g transform="translate(128.15 44.5)">
                    <mask id="g" fill="#fff">
                        <use xlink:href="#f"></use>
                    </mask>
                </g>
                <g transform="translate(157.47 47.2)">
                    <mask id="i" fill="#fff">
                        <use xlink:href="#h"></use>
                    </mask>
                </g>
            </g>
        </g>
    </g>
</svg>